{"title":"The Legend of Tarzan - 2016 - HDTS - (Dual Audio) [English - Hin","uid":15250486,"size":886734989,"categoryP":"video","categoryS":"movies","magnet":"?xt=urn:btih:2c7ea34d5caf7f45850375fdc6571ba5b07f81e6&amp;dn=The+Legend+of+Tarzan+-+2016+-+HDTS+-+%28Dual+Audio%29+%5BEnglish+-+Hin&amp;tr=udp%3A%2F%2Ftracker.leechers-paradise.org%3A6969&amp;tr=udp%3A%2F%2Fzer0day.ch%3A1337&amp;tr=udp%3A%2F%2Fopen.demonii.com%3A1337&amp;tr=udp%3A%2F%2Ftracker.coppersurfer.tk%3A6969&amp;tr=udp%3A%2F%2Fexodus.desync.com%3A6969","seeders":18,"leechers":4,"uploader":"makintos13","files":1,"time":1468044327,"description":"screens:\r\n \nhttps://imgmak.com/TFI\r\n \nhttps://imgmak.com/TFq\r\n \nhttps://imgmak.com/TFt\r\n \nhttps://imgmak.com/TF2\r\n\r\n \nhttps://imgmak.com/TFF\r\n\r\n \nhttps://imgmak.com/TFi\r\n\r\n \nhttps://imgmak.com/TFj\r\n\r\n \nhttps://imgmak.com/TFw\r\n \nhttps://imgmak.com/TFJ\r\n \nhttps://imgmak.com/TFW\r\n\r\n\r\nINFO:\r\n\r\n\r\nomplete name : H:aud1(1).mkv\r\nFormat : Matroska\r\nFormat version : Version 4 / Version 2\r\nFile size : 846 MiB\r\nDuration : 1h 45mn\r\nOverall bit rate : 1 119 Kbps\r\n\r\nVideo\r\nID : 3\r\nFormat : AVC\r\nFormat/Info : Advanced Video Codec\r\nFormat profile :   \r\nFormat settings, CABAC : Yes\r\nFormat settings, ReFrames : 4 frames\r\nCodec ID : V_MPEG4/ISO/AVC\r\nDuration : 1h 45mn\r\nBit rate : 990 Kbps\r\nWidth : 720 pixels\r\nHeight : 304 pixels\r\nDisplay aspect ratio : 2.35:1\r\nFrame rate mode : Constant\r\nFrame rate : 30.000 fps\r\nColor space : YUV\r\nChroma subsampling : 4:2:0\r\nBit depth : 8 bits\r\nScan type : Progressive\r\nBits/(Pixel*Frame) : 0.151\r\nStream size : 748 MiB (89%)\r\nDefault : Yes\r\nForced : No\r\n\r\nAudio #1\r\nID : 1\r\nFormat : AAC\r\nFormat/Info : Advanced Audio Codec\r\nFormat profile : LC\r\nCodec ID : A_AAC\r\nDuration : 1h 45mn\r\nBit rate : 64.4 Kbps\r\nChannel(s) : 2 channels\r\nChannel positions : Front: L R\r\nSampling rate : 48.0 KHz\r\nFrame rate : 46.875 fps (1024 spf)\r\nCompression mode : Lossy\r\nDelay relative to video : 46ms\r\nStream size : 48.6 MiB (6%)\r\nTitle : Stereo\r\nDefault : Yes\r\nForced : No\r\n\r\nAudio #2\r\nID : 2\r\nFormat : AAC\r\nFormat/Info : Advanced Audio Codec\r\nFormat profile : LC\r\nCodec ID : A_AAC\r\nDuration : 1h 41mn\r\nBit rate : 63.3 Kbps\r\nChannel(s) : 2 channels\r\nChannel positions : Front: L R\r\nSampling rate : 48.0 KHz\r\nFrame rate : 46.875 fps (1024 spf)\r\nCompression mode : Lossy\r\nDelay relative to video : 46ms\r\nStream size : 46.2 MiB (5%)\r\nTitle : Stereo\r\nDefault : No\r\nForced : No","torrent":{"xt":"urn:btih:2c7ea34d5caf7f45850375fdc6571ba5b07f81e6","amp;dn":"The+Legend+of+Tarzan+-+2016+-+HDTS+-+%28Dual+Audio%29+%5BEnglish+-+Hin","amp;tr":["udp%3A%2F%2Ftracker.leechers-paradise.org%3A6969","udp%3A%2F%2Fzer0day.ch%3A1337","udp%3A%2F%2Fopen.demonii.com%3A1337","udp%3A%2F%2Ftracker.coppersurfer.tk%3A6969","udp%3A%2F%2Fexodus.desync.com%3A6969"],"infoHash":"2c7ea34d5caf7f45850375fdc6571ba5b07f81e6","infoHashBuffer":{"type":"Buffer","data":[44,126,163,77,92,175,127,69,133,3,117,253,198,87,27,165,176,127,129,230]},"announce":[],"urlList":[]}}